<?xml version="1.0" encoding="utf-8"?>
<!-- Generator: Adobe Illustrator 26.1.0, SVG Export Plug-In . SVG Version: 6.00 Build 0)  -->
<svg version="1.1" id="Capa_1" xmlns="http://www.w3.org/2000/svg" xmlns:xlink="http://www.w3.org/1999/xlink" x="0px" y="0px"
	 viewBox="0 0 110 75" style="enable-background:new 0 0 110 75;" xml:space="preserve">
<style type="text/css">
	.st0{fill:#080808;}
	.st1{fill:#EDE70D;}
	.st2{fill:#DD8300;}
	.st3{fill:#D10010;}
	.st4{fill:#F3FF00;}
</style>
<g>
	<g>
		<path d="M28.39,50.55l-1.25,0.02v7.62h-3.3V30.22h4.36c5.88,0,10.51,4.43,10.51,10.08c0,3.65-1.89,6.86-4.92,8.71l5.39,9.2h-3.81
			l-4.67-7.95C29.93,50.43,29.15,50.53,28.39,50.55z M35.4,40.29c0-3.85-3.09-6.78-7.21-6.78h-1.05v13.75h1.21
			C32.31,47.19,35.4,44.12,35.4,40.29z"/>
		<path d="M49.65,30.22v27.99h-3.3V30.22H49.65z"/>
		<path d="M60.64,54.46c-2.62-2.68-4.16-6.29-4.16-10.23c0-3.91,1.54-7.56,4.16-10.21c2.62-2.68,6.19-4.26,10.02-4.26
			c3.85,0,7.4,1.58,10.02,4.26c2.62,2.66,4.16,6.31,4.16,10.21c0,3.95-1.54,7.56-4.16,10.23s-6.17,4.26-10.02,4.26
			C66.83,58.71,63.25,57.13,60.64,54.46z M78.35,52.15c2.03-2.05,3.2-4.88,3.2-7.93c0-3.01-1.17-5.84-3.2-7.91
			c-1.99-2.07-4.77-3.28-7.7-3.28s-5.7,1.21-7.7,3.28c-2.03,2.07-3.2,4.9-3.2,7.91c0,3.05,1.17,5.88,3.2,7.93
			c1.99,2.05,4.77,3.3,7.7,3.3S76.36,54.2,78.35,52.15z"/>
		<path d="M95.16,50.55l-1.25,0.02v7.62h-3.3V30.22h4.36c5.88,0,10.51,4.43,10.51,10.08c0,3.65-1.89,6.86-4.92,8.71l5.39,9.2h-3.81
			l-4.67-7.95C96.7,50.43,95.92,50.53,95.16,50.55z M102.17,40.29c0-3.85-3.09-6.78-7.21-6.78h-1.05v13.75h1.21
			C99.08,47.19,102.17,44.12,102.17,40.29z"/>
	</g>
	<g>
		<path class="st0" d="M23.13,67.54c-0.47,0.95-0.8,1.67-1.18,2.37c-0.27,0.5-0.69,0.82-1.28,0.54c-0.62-0.29-0.72-0.8-0.47-1.41
			c0.03-0.07,0.07-0.14,0.1-0.22c0.29-0.76,1.21-1.59,0.81-2.2c-0.36-0.54-1.5-0.58-2.29-0.83c-0.27-0.09-0.54-0.14-0.8-0.25
			c-0.56-0.24-0.78-0.69-0.58-1.27c0.19-0.54,0.64-0.72,1.16-0.58c0.96,0.26,1.92,0.54,2.86,0.87c0.66,0.23,1.05,0.18,1.43-0.51
			c0.75-1.36,1.65-2.64,2.46-3.96c0.37-0.61,0.85-1.07,1.55-0.65c0.7,0.43,0.51,1.06,0.12,1.67c-0.86,1.34-1.69,2.71-2.57,4.04
			c-0.33,0.49-0.31,0.82,0.13,1.23c0.74,0.67,1.42,1.4,2.14,2.1c0.51,0.5,0.99,1.06,0.36,1.74c-0.67,0.72-1.22,0.19-1.71-0.32
			C24.68,69.17,23.97,68.42,23.13,67.54z"/>
		<path class="st0" d="M41.38,67.53c-1.61,0-1.61,0-1.19,1.6c0.1,0.39,0.23,0.77,0.28,1.16c0.06,0.53-0.18,0.94-0.72,1.08
			c-0.54,0.13-0.98-0.07-1.14-0.6c-0.22-0.72-0.36-1.47-0.51-2.21c-0.11-0.53-0.26-0.86-0.94-0.59c-0.66,0.26-1.38,0.39-2.08,0.54
			c-0.58,0.12-1.06-0.07-1.2-0.69c-0.14-0.6,0.18-0.99,0.74-1.18c0.11-0.04,0.23-0.05,0.35-0.08c2.64-0.73,2.63-0.73,2.11-3.47
			c-0.13-0.66-0.24-1.33-0.36-2c-0.12-0.7-0.05-1.35,0.79-1.46c0.74-0.1,1.03,0.4,1.13,1.09c0.19,1.34,0.49,2.67,0.63,4.01
			c0.08,0.74,0.36,0.95,1.05,0.89c0.63-0.05,1.28,0,1.91-0.01c0.68-0.01,1.23,0.15,1.22,0.95c-0.01,0.79-0.55,0.98-1.23,0.96
			C41.94,67.52,41.66,67.53,41.38,67.53z"/>
		<g>
			<path class="st0" d="M6.69,34.06c-0.86-0.63-1.72-1.22-2.38-2.03c-2.01-2.46-1.1-5.92,1.93-6.86c0.98-0.31,1.05-0.68,0.97-1.56
				c-0.23-2.42,0.39-4.67,1.72-6.71c0.57-0.88,1.31-1.62,2.27-2.07c1.3-0.61,2.55-0.24,3.35,0.95c0.68,1,0.86,2.14,0.95,3.3
				c0.39,5.03,2.53,9.18,6.35,12.45c0.85,0.73,0.84,1.26,0.1,2.06c-2.58,2.77-3.97,6.04-3.82,9.88c0.04,1.12-0.49,1.52-1.53,1.44
				c-2.47-0.19-4.92-0.46-7.29-1.26c-4.58-1.55-5.76-5.11-2.97-9.08C6.45,34.4,6.56,34.24,6.69,34.06z M15.08,42.81
				c0.42-0.06,1.07,0.32,1.1-0.59c0.11-3.4,1.37-6.37,3.47-9c0.35-0.44,0.33-0.73-0.08-1.1c-0.82-0.76-1.54-1.62-2.23-2.5
				c-1.41-1.81-2.36-3.89-3.13-6c-0.57-1.57-0.48-3.37-0.73-5.06c-0.11-0.78-0.15-1.82-1.03-2c-0.9-0.18-1.45,0.72-1.9,1.41
				c-1.42,2.19-1.81,4.56-1.11,7.1c0.33,1.23,0.02,1.59-1.24,1.68c-0.47,0.04-0.95,0.1-1.41,0.22c-1.77,0.46-2.34,2.15-1.24,3.63
				c0.78,1.06,1.95,1.6,3.03,2.27c0.76,0.47,1,1.01,0.3,1.73c-0.75,0.77-1.33,1.58-1.69,2.66c-0.59,1.74-0.31,3.02,1.3,3.9
				C10.53,42.27,12.78,42.59,15.08,42.81z"/>
			<path class="st1" d="M15.08,42.81c-2.3-0.22-4.55-0.54-6.59-1.64c-1.62-0.87-1.89-2.16-1.3-3.9c0.37-1.08,0.94-1.89,1.69-2.66
				c0.7-0.72,0.46-1.26-0.3-1.73c-1.07-0.67-2.24-1.21-3.03-2.27c-1.1-1.48-0.53-3.17,1.24-3.63c0.46-0.12,0.94-0.19,1.41-0.22
				c1.25-0.09,1.57-0.46,1.24-1.68c-0.69-2.54-0.31-4.91,1.11-7.1c0.45-0.7,1-1.6,1.9-1.41c0.87,0.18,0.91,1.22,1.03,2
				c0.25,1.69,0.16,3.49,0.73,5.06c0.77,2.1,1.71,4.19,3.13,6c0.69,0.88,1.41,1.74,2.23,2.5c0.4,0.37,0.42,0.67,0.08,1.1
				c-2.1,2.63-3.36,5.6-3.47,9C16.15,43.13,15.49,42.75,15.08,42.81z"/>
		</g>
		<g>
			<path class="st0" d="M26.33,16.6c0.19-0.71,0.06-1.23-1.21-1.17c-1.12,0.05-1.74-0.8-1.95-1.9c-0.28-1.5,0.05-2.65,1.12-3.11
				c0.65-0.28,0.72-0.6,0.67-1.24c-0.18-2.26,1.24-3.54,3.47-3.22c0.36,0.05,0.69,0.33,0.89-0.34c0.54-1.81,1.22-2.22,2.83-1.93
				c1.53,0.27,2.53,1.48,2.49,3.04c-0.01,0.24-0.04,0.48-0.1,0.71c-0.17,0.66-0.11,1.06,0.72,1.24c1.16,0.25,1.91,1.15,2.45,2.15
				c0.37,0.68,0.83,0.94,1.6,0.97c1.5,0.07,2.89,0.54,4.07,1.54c0.54,0.46,0.89,1.03,1.13,1.67c0.34,0.89,0.17,1.56-0.89,1.8
				c-0.9,0.2-1.78,0.48-2.68,0.63c-0.77,0.12-0.9,0.44-0.82,1.2c0.32,3.03,0.41,6.07-0.83,8.96c-0.14,0.33-0.29,0.66-0.47,0.97
				c-1.12,1.9-1.49,2.01-3.49,1.16c-3.58-1.52-7.26-1.76-11.03-0.86c-0.27,0.07-0.54,0.14-0.81,0.2c-0.31,0.07-0.7,0.23-0.91-0.02
				c-0.29-0.33,0.18-0.54,0.31-0.79C24.72,24.66,26.1,20.95,26.33,16.6z M38.28,21.7c-0.02-3.52-0.59-6.9-2.36-10.01
				c-0.49-0.86-1.17-1.25-2.14-1.25c-2.68,0-5.39,1.99-5.47,5.74c-0.07,3.21-0.78,6.24-1.92,9.2c-0.35,0.9-0.14,1.08,0.76,1.02
				c3.03-0.23,5.98,0.14,8.77,1.4c0.8,0.36,1.09-0.01,1.36-0.61C38.07,25.44,38.35,23.61,38.28,21.7z"/>
			<path class="st2" d="M38.28,21.7c0.07,1.9-0.22,3.74-1,5.48c-0.27,0.6-0.56,0.97-1.36,0.61c-2.79-1.26-5.74-1.63-8.77-1.4
				c-0.9,0.07-1.11-0.11-0.76-1.02c1.14-2.96,1.86-5.99,1.92-9.2c0.08-3.76,2.78-5.75,5.47-5.74c0.96,0,1.65,0.39,2.14,1.25
				C37.69,14.8,38.26,18.19,38.28,21.7z"/>
			<path class="st3" d="M24.9,14.02c0.57,0.44,1.53,0.83,1.77-0.08c0.61-2.27,2.92-4.3,5.13-4.99c0.43-0.13,0.9-0.23,1.2-0.56
				c0.35-0.38,0.37-0.96,0.35-1.48c-0.02-0.64-0.07-1.36-0.55-1.79c-0.37-0.33-0.94-0.4-1.38-0.17c-0.29,0.16-0.51,0.43-0.69,0.71
				c-0.48,0.75-0.75,1.63-0.78,2.52c-0.43-0.35-0.88-0.68-1.4-0.88s-1.11-0.26-1.62-0.06c-0.51,0.21-0.92,0.72-0.91,1.27
				c0.01,0.37,0.2,0.71,0.33,1.06s0.2,0.76,0,1.07c-0.18,0.28-0.53,0.39-0.85,0.48c-0.51,0.15-1.07,0.33-1.34,0.79
				c-0.21,0.35-0.19,0.8-0.03,1.18C24.28,13.47,24.57,13.77,24.9,14.02z"/>
			<path class="st4" d="M40.32,15.98c0.7-0.54,1.93-0.64,2.82-0.5c-0.07,0-0.39-0.46-0.46-0.52c-0.18-0.17-0.37-0.33-0.58-0.47
				c-0.41-0.28-0.87-0.49-1.35-0.63c-0.38-0.11-1.09-0.31-1.48-0.17c-0.31,0.12-0.11,0.28,0.06,0.44c0.19,0.18,0.37,0.38,0.54,0.6
				C40.23,15.21,40.14,15.41,40.32,15.98z"/>
		</g>
	</g>
	<g>
		<path d="M47.66,16.3l4.24,12.17h-0.48l-1.55-4.51h-4.42l-1.55,4.51h-0.48L47.66,16.3z M45.63,23.48h4.06l-2.03-5.85L45.63,23.48z"
			/>
		<path d="M59.48,16.61h0.48l-4.24,12.17l-4.24-12.17h0.48l3.77,10.85L59.48,16.61z"/>
		<path d="M62.71,16.61v11.86h-0.45V16.61H62.71z"/>
		<path d="M75.51,19.42l-0.42,0.17c-0.43-0.81-1.05-1.45-1.85-1.92c-0.77-0.48-1.6-0.72-2.48-0.72c-1.34,0-2.52,0.56-3.51,1.67
			c-1,1.11-1.5,2.42-1.5,3.92c0,1.5,0.5,2.8,1.5,3.92c1,1.11,2.17,1.67,3.51,1.67c0.87,0,1.69-0.23,2.48-0.7
			c0.8-0.49,1.42-1.13,1.85-1.93l0.42,0.17c-0.48,0.92-1.15,1.64-2.02,2.17c-0.86,0.53-1.77,0.8-2.73,0.8
			c-1.46,0-2.74-0.6-3.84-1.81c-1.08-1.23-1.62-2.65-1.62-4.28c0-1.63,0.54-3.05,1.62-4.26c1.09-1.22,2.37-1.83,3.84-1.83
			c0.96,0,1.87,0.27,2.73,0.8C74.36,17.78,75.03,18.5,75.51,19.42z"/>
		<path d="M88.26,22.54c0,1.63-0.55,3.06-1.64,4.28c-1.08,1.21-2.36,1.81-3.82,1.81c-1.46,0-2.74-0.6-3.84-1.81
			c-1.08-1.23-1.62-2.65-1.62-4.28c0-1.63,0.54-3.05,1.62-4.26c1.09-1.22,2.37-1.83,3.84-1.83c1.46,0,2.74,0.61,3.82,1.83
			C87.71,19.48,88.26,20.9,88.26,22.54z M86.31,26.46c1-1.11,1.5-2.42,1.5-3.92c0-1.5-0.5-2.8-1.5-3.92c-1-1.11-2.17-1.67-3.51-1.67
			s-2.52,0.56-3.51,1.67c-1,1.11-1.5,2.42-1.5,3.92c0,1.5,0.5,2.8,1.5,3.92c1,1.11,2.17,1.67,3.51,1.67S85.31,27.57,86.31,26.46z"/>
		<path d="M95.85,27.97v0.5h-5V16.61h0.45v11.36H95.85z"/>
		<path d="M102.53,16.3l4.24,12.17h-0.48l-1.55-4.51h-4.42l-1.55,4.51h-0.48L102.53,16.3z M100.5,23.48h4.06l-2.03-5.85L100.5,23.48
			z"/>
	</g>
</g>
</svg>
